<?xml version="1.0" encoding="UTF-8"?>
<svg width="402px" height="115px" viewBox="0 0 402 115" version="1.1" xmlns="http://www.w3.org/2000/svg" xmlns:xlink="http://www.w3.org/1999/xlink">
    <!-- Generator: Sketch 52.3 (67297) - http://www.bohemiancoding.com/sketch -->
    <title>logo-arma+synatec</title>
    <desc>Created with Sketch.</desc>
    <defs>
        <polygon id="path-1" points="0.0492244898 0.241130435 401.767824 0.241130435 401.767824 93.8626783 0.0492244898 93.8626783"></polygon>
    </defs>
    <g id="Page-1" stroke="none" stroke-width="1" fill="none" fill-rule="evenodd">
        <g id="accueil" transform="translate(-165.000000, -7870.000000)">
            <g id="logo-arma+synatec" transform="translate(165.000000, 7870.000000)">
                <path d="M309.405047,71.3080556 C309.879021,71.5059926 310.198179,71.5817463 310.360934,71.5361311 C310.531628,71.490516 310.605463,71.3764782 310.584027,71.1932032 L310.961936,71.1932032 L311.317615,74.6167808 L310.961936,74.6167808 C310.820617,73.6670088 310.442708,72.9135448 309.827416,72.3572033 C309.590032,72.1144657 309.266904,71.9238597 308.85962,71.7870143 C308.526171,71.6501689 308.155408,71.585819 307.748124,71.59315 C307.184437,71.585819 306.705699,71.752803 306.3135,72.0957309 C306.002281,72.3539451 305.823648,72.704204 305.779188,73.1448786 C305.749813,73.5554147 305.883192,73.9203357 306.18012,74.240456 C306.431795,74.4913392 307.102662,74.8301944 308.192723,75.256207 C309.208154,75.6056514 309.927451,75.9102952 310.349819,76.1685094 C311.506569,76.8918348 312.055172,77.9409826 311.995627,79.3175817 C311.943228,80.374875 311.554205,81.2839191 310.828556,82.0447141 C310.08703,82.7973636 309.052544,83.1052657 307.7251,82.9684203 C307.220957,82.9073286 306.765244,82.8046946 306.35796,82.6605183 C305.46003,82.3184049 304.915397,82.1856323 304.723266,82.2605714 C304.537488,82.3289941 304.441423,82.5090109 304.433484,82.7973636 L304.067484,82.7973636 L304,79.146525 L304.355679,79.146525 C304.408078,79.5497301 304.493028,79.9032472 304.612117,80.2070765 C304.729618,80.4897273 304.952711,80.7894838 305.279015,81.1087897 C305.968936,81.7702089 306.791443,82.1783013 307.748124,82.3289941 C308.584922,82.451992 309.260553,82.3412124 309.771841,81.9982845 C310.238669,81.6797932 310.487168,81.2611116 310.516544,80.7438687 C310.584027,80.2339568 310.472084,79.7932822 310.183095,79.4202157 C309.975086,79.1620015 309.641637,78.9298532 309.181954,78.7245851 C308.566662,78.4508944 308.006944,78.2334081 307.502801,78.0737551 C306.858133,77.8310175 306.383365,77.6436697 306.080086,77.5141554 C304.737557,76.8299286 304.081774,75.7661189 304.11115,74.319468 C304.140525,73.369696 304.459683,72.5787624 305.06783,71.9466672 C305.719643,71.3080556 306.605665,70.9920079 307.7251,71.0001535 C308.288788,71.0001535 308.848505,71.1027875 309.405047,71.3080556" id="Fill-1" fill="#0A0C34"></path>
                <path d="M316.105156,71 L321.795103,71 L321.795103,71.4010587 C320.912458,71.4010587 320.795365,72.2267678 321.443821,73.8790286 L323.559584,79.2377123 L325.832817,73.7846619 C326.488542,72.2040187 326.247086,71.4094843 325.109258,71.4010587 L325.109258,71 L329,71 L329,71.4010587 C327.913855,71.433076 327.039286,72.2596277 326.375486,73.8790286 L321.375988,86.0708765 C320.976254,87.0457188 320.528068,87.7458864 320.029814,88.1713794 C319.532368,88.5960298 318.995351,88.8555384 318.417958,88.9499051 C317.841373,89.0442719 317.341504,89.0055141 316.919159,88.8319467 C316.496814,88.6592218 316.223864,88.3955004 316.099503,88.0416251 C315.975141,87.6877497 315.967066,87.3473554 316.076892,87.020442 C316.18591,86.6943711 316.391833,86.483731 316.693047,86.3893643 C317.160614,86.2478142 317.560348,86.3817812 317.892248,86.790423 C318.224148,87.1914817 318.495482,87.4316114 318.707059,87.5099695 C319.053495,87.6439366 319.370051,87.6329833 319.656729,87.474582 C320.124296,87.2226564 320.528068,86.6884732 320.867236,85.8703471 L322.099546,82.8961092 L318.526169,73.8790286 C317.869637,72.2267678 317.062901,71.4010587 316.105156,71.4010587 L316.105156,71" id="Fill-2" fill="#0A0C34"></path>
                <path d="M341.444872,72.0040739 C342.108269,72.6951656 342.439968,73.6848156 342.439968,74.9738555 L342.439968,80.123362 C342.439968,81.7542053 342.959709,82.5808541 344,82.60414 L344,83 L338.200521,83 L338.200521,82.60414 C339.240812,82.5808541 339.760554,81.7542053 339.760554,80.123362 L339.760554,74.5896385 C339.767817,73.8835773 339.56444,73.2731545 339.150422,72.7608651 C338.743668,72.2402593 338.196486,71.9841146 337.511299,71.9915994 C336.901167,71.9915994 336.380618,72.2527339 335.951266,72.772508 C335.537249,73.2847974 335.329836,73.8902304 335.329836,74.5896385 L335.329836,80.123362 C335.329836,81.7542053 335.856841,82.5808541 336.912466,82.60414 L336.912466,83 L331,83 L331,82.60414 C332.062888,82.5808541 332.593928,81.7542053 332.593928,80.123362 L332.593928,73.7746326 C332.593928,72.4381893 332.062888,71.8685168 331,72.061457 L331,71.6539541 L334.979575,71.0019494 C335.174882,71.2040376 335.291905,71.7279699 335.329836,72.5737464 C336.203874,71.5258817 337.31922,71.0019494 338.675875,71.0019494 C339.828346,70.9711788 340.751614,71.3046658 341.444872,72.0040739" id="Fill-3" fill="#0A0C34"></path>
                <path d="M351.340995,76.8126062 C350.779611,77.0779555 350.366685,77.4581817 350.102217,77.9573296 C349.836939,78.4483876 349.70795,79.007401 349.716063,79.6343696 C349.738778,80.2540574 349.905084,80.8017448 350.215792,81.277432 C350.541103,81.7531192 351.014873,81.9885358 351.63629,81.9796369 C352.393997,81.9796369 352.973229,81.6099277 353.374797,80.8697001 C353.790968,80.1213827 354.00027,79.1732443 354.00027,78.0252849 L354.00027,75.0902626 C353.575176,75.5659498 352.689292,76.141143 351.340995,76.8126062 Z M356.22715,72.8129507 C356.54516,73.4334474 356.700108,74.2481021 356.692807,75.2601509 L356.692807,80.9489813 C356.692807,81.6511862 356.881828,82.0597271 357.261493,82.172177 C357.693077,82.263593 358.211466,82.1123116 358.817469,81.7191415 L359,82.070244 C358.150622,82.6373473 357.321525,82.9204944 356.511087,82.9204944 C354.981071,82.9204944 354.169822,82.3582451 354.079773,81.2321285 C353.783667,81.7078157 353.313953,82.1276824 352.669822,82.4901107 C352.049216,82.8371682 351.29881,83.0070565 350.420227,82.9997756 C349.443483,82.961753 348.624932,82.659999 347.966198,82.0937048 C347.322066,81.5193206 347,80.7451154 347,79.7702803 C347,78.1992182 347.878583,77.1119332 349.63656,76.5068073 C352.567604,75.4801967 354.022174,74.3192934 354.00027,73.0281425 C353.984045,72.0468354 353.223094,71.5549684 351.715792,71.5549684 C351.102488,71.5549684 350.662791,71.6803621 350.397512,71.9287226 C350.313953,72.0047678 350.147647,72.3526343 349.897783,72.9715131 C349.768794,73.2886378 349.613845,73.5418523 349.432125,73.7311564 C349.265008,73.9196515 349.06463,74.0369553 348.829367,74.0814498 C348.579502,74.1429332 348.329638,74.0895397 348.079773,73.9228874 C347.867226,73.765134 347.739048,73.5386163 347.693618,73.2433343 C347.655489,72.8210406 347.882639,72.4092637 348.375068,72.0080038 C349.185506,71.3511024 350.299351,71.0145619 351.715792,71 C354.11709,71 355.621147,71.6043169 356.22715,72.8129507 Z" id="Fill-4" fill="#0A0C34"></path>
                <path d="M364.700206,67 L364.700206,71.2233042 L367.220254,71.2233042 L367.220254,71.7723582 L364.700206,71.7723582 L364.700206,79.7606045 C364.700206,80.6160504 364.866239,81.2222976 365.199174,81.5801631 C365.523416,81.9159685 366.011083,81.9960389 366.660437,81.8203743 C366.871672,81.759913 367.252418,81.614479 367.805281,81.3857065 L368,82.0148309 C367.707052,82.1684353 367.261111,82.3473681 366.660437,82.5532634 C363.372813,83.6211409 361.729001,82.7746825 361.729001,80.0122543 L361.729001,71.7723582 L360,71.7723582 L360,71.4177608 C360.909269,71.2045122 361.765511,70.6742501 362.569597,69.8269748 C363.380637,68.973163 363.961317,68.0302934 364.310768,67 L364.700206,67" id="Fill-5" fill="#0A0C34"></path>
                <path d="M375.334892,72.010885 C374.990062,72.3224258 374.719985,72.7199648 374.524662,73.2043134 C374.329339,73.6748699 374.182243,74.1478602 374.084984,74.624907 C373.987724,75.0873504 373.92342,75.5416808 373.893679,75.9887094 L379.106321,75.9887094 C379.128827,75.4199851 379.065327,74.8106957 378.915016,74.1584071 C378.779978,73.4996282 378.498648,72.8903387 378.071027,72.3297275 C377.649836,71.7610033 377.143442,71.4884051 376.551041,71.5111216 C376.100913,71.5265364 375.694995,71.6928538 375.334892,72.010885 Z M380.468761,72.5114597 C381.414834,73.5190995 381.925247,74.8642418 382,76.545264 L373.85992,76.545264 C373.76266,77.9999324 374.084984,79.2501521 374.828498,80.2959232 C375.571209,81.3335812 376.498794,81.8374011 377.609646,81.8065716 C378.570186,81.783855 379.376398,81.4398621 380.029887,80.77297 C380.682572,80.106078 381.171282,79.2266243 381.493606,78.1362315 L381.853708,78.1362315 C381.545853,79.6590494 380.896383,80.8516666 379.906102,81.7157055 C378.922251,82.5716314 377.751114,83 376.393497,83 C374.891999,83 373.612349,82.4320871 372.554549,81.2954499 C371.517647,80.1742276 371,78.7812183 371,77.1131769 C371,75.3859104 371.517647,73.9434115 372.554549,72.7840579 C373.605115,71.594686 374.956303,71 376.607307,71 C378.251078,71 379.538765,71.5038199 380.468761,72.5114597 Z" id="Fill-6" fill="#0A0C34"></path>
                <path d="M394.673609,72.0674772 C395.218875,72.4751773 395.458961,72.9071935 395.396403,73.3610942 C395.364279,73.6496454 395.214648,73.8684904 394.946665,74.0200608 C394.709115,74.156231 394.44874,74.2008105 394.164694,74.156231 C393.911927,74.0962513 393.698893,73.9787234 393.525592,73.8036474 C393.351445,73.6374873 393.197587,73.3505572 393.064018,72.9412361 C392.889026,72.3665653 392.744467,72.0334347 392.625269,71.941844 C392.341223,71.6930091 391.887258,71.5641337 391.264218,71.5560284 C390.584537,71.5560284 389.980941,71.8551165 389.452582,72.4532928 C388.938595,73.0287741 388.559868,73.7323202 388.315555,74.5647416 C388.086459,75.3971631 387.979942,76.2563323 387.995158,77.1414387 C388.027283,78.4585613 388.410237,79.5941236 389.144021,80.5473151 C389.87865,81.4786221 390.817015,81.9292806 391.962496,81.8984802 C393.746234,81.8303951 394.966108,80.5927052 395.621273,78.1862209 L396,78.1862209 C395.731171,79.700304 395.127575,80.8877406 394.188365,81.7509625 C393.296496,82.5841945 392.178912,83 390.837304,83 C389.163464,82.9927052 387.782124,82.4326241 386.693283,81.3197568 C385.571472,80.2004053 385.007608,78.8151976 385,77.1649443 C385.007608,75.3931104 385.532585,73.9325228 386.574931,72.7815603 C387.631648,71.5949341 389.132186,71 391.074854,71 C392.542422,71 393.742007,71.3558257 394.673609,72.0674772" id="Fill-7" fill="#0A0C34"></path>
                <path d="M308,54.9444015 L308,56.5011583 C307.58118,56.811583 306.941462,57 306.250497,57 C304.957809,57 304,56.2293436 304,55.0108108 C304,53.8478764 304.874751,53 306.231058,53 C306.83985,53 307.467197,53.1830116 307.949636,53.6200772 L307.556439,53.9142857 C307.195052,53.6146718 306.751491,53.4594595 306.224873,53.4594595 C305.280318,53.4594595 304.576983,54.0694981 304.576983,55.0108108 C304.576983,55.8972973 305.242324,56.5513514 306.250497,56.5513514 C306.700243,56.5513514 307.111995,56.4625483 307.448641,56.2517375 L307.448641,55.3876448 L306.142699,55.3876448 L306.142699,54.9444015 L308,54.9444015" id="Fill-8" fill="#54595A"></path>
                <polyline id="Fill-9" fill="#54595A" points="310 53 312.861553 53 312.861553 53.4507263 310.579462 53.4507263 310.579462 54.7856302 312.453545 54.7856302 312.453545 55.2363565 310.579462 55.2363565 310.579462 56.5492737 313 56.5492737 313 57 310 57 310 53"></polyline>
                <path d="M315,56.3915558 L315.34293,56.0260266 C315.656784,56.3745903 316.128848,56.5465587 316.551311,56.5465587 C317.085804,56.5465587 317.441562,56.3190669 317.441562,55.9435126 C317.441562,55.5008676 317.049031,55.3844226 316.465792,55.1854637 C315.821836,54.9695392 315.165051,54.720455 315.165051,54.040293 C315.165051,53.4534413 315.754276,53.0053981 316.496579,53 C316.981471,53 317.460376,53.160401 317.876853,53.4588394 L317.551881,53.8351648 C317.208096,53.5752844 316.821551,53.4480432 316.496579,53.4480432 C316.09122,53.4480432 315.724344,53.6470021 315.724344,54.0179294 C315.717503,54.3942549 316.110034,54.5268942 316.649658,54.720455 C317.38683,54.9749373 318,55.1577019 318,55.8933873 C318,56.6182765 317.29447,57 316.545325,57 C315.999715,57 315.435291,56.8118373 315,56.3915558" id="Fill-10" fill="#54595A"></path>
                <polyline id="Fill-11" fill="#54595A" points="321.24295 53.4507263 320 53.4507263 320 53 323 53 323 53.4507263 321.751356 53.4507263 321.751356 57 321.24295 57 321.24295 53.4507263"></polyline>
                <polygon id="Fill-12" fill="#54595A" points="326.1845 57 326.8155 57 326.8155 53 326.1845 53"></polygon>
                <path d="M332.487944,55.0026991 C332.487944,54.0896472 331.834738,53.4588394 331.008234,53.4588394 C330.113507,53.4588394 329.505783,54.1505687 329.505783,55.0026991 C329.505783,55.8548294 330.113507,56.5403894 331.008234,56.5403894 C331.834738,56.5403894 332.487944,55.9041835 332.487944,55.0026991 Z M329,55.0026991 C329,53.8690958 329.810037,53 331.008234,53 C332.132719,53 333,53.8027762 333,55.0026991 C333,56.197995 332.132719,57 331.008234,57 C329.810037,57 329,56.1363023 329,55.0026991 Z" id="Fill-13" fill="#54595A"></path>
                <polyline id="Fill-14" fill="#54595A" points="339 53 339 57 338.536786 57 336.46394 53.8457008 336.453049 53.8457008 336.453049 57 336 57 336 53 336.447967 53 338.536786 56.1888496 338.546951 56.1888496 338.546951 53 339 53"></polyline>
                <polyline id="Fill-15" fill="#54595A" points="304 60 307 60 307 60.4507263 304.576177 60.4507263 304.576177 61.8531606 306.636196 61.8531606 306.636196 62.3046722 304.576177 62.3046722 304.576177 64 304 64 304 60"></polyline>
                <polygon id="Fill-16" fill="#54595A" points="309.184 64 309.816 64 309.816 60 309.184 60"></polygon>
                <polyline id="Fill-17" fill="#54595A" points="316 60 316 64 315.536786 64 313.46394 60.8449156 313.453775 60.8449156 313.453775 64 313 64 313 60 313.447967 60 315.536786 63.1888496 315.546951 63.1888496 315.546951 60 316 60"></polyline>
                <path d="M320.83237,62.5975658 L320.003557,60.5975658 L319.990218,60.5975658 L319.166741,62.5975658 L320.83237,62.5975658 Z M321.011116,63.0255202 L318.988884,63.0255202 L318.586928,64 L318,64 L319.716318,60 L320.271232,60 L322,64 L321.413072,64 L321.011116,63.0255202 Z" id="Fill-18" fill="#54595A"></path>
                <polyline id="Fill-19" fill="#54595A" points="328 60 328 64 327.536172 64 325.463102 60.8449156 325.453666 60.8449156 325.453666 64 325 64 325 60 325.447859 60 327.536172 63.1888496 327.546334 63.1888496 327.546334 60 328 60"></polyline>
                <path d="M330,62.0216216 C330,60.9034749 330.798763,60 332.244312,60 C332.86459,60 333.511376,60.2216216 334,60.753668 L333.587365,61.0532819 C333.245416,60.6756757 332.763861,60.4602317 332.244312,60.4602317 C331.2167,60.4602317 330.576983,61.1081081 330.576983,62.0216216 C330.576983,62.9583012 331.293572,63.5397683 332.244312,63.5397683 C332.826596,63.5397683 333.270157,63.2965251 333.587365,62.953668 L334,63.2579151 C333.606804,63.6841699 333.036006,64 332.244312,64 C331.026729,64 330,63.3081081 330,62.0216216" id="Fill-20" fill="#54595A"></path>
                <polygon id="Fill-21" fill="#54595A" points="336.1845 64 336.8155 64 336.8155 60 336.1845 60"></polygon>
                <path d="M340.730052,59 L341.341792,59.0062687 L342.112198,59.9116418 L341.545399,59.9116418 L340.730052,59 Z M340,60.438209 L342.86151,60.438209 L342.86151,60.9522388 L340.578722,60.9522388 L340.578722,62.4755224 L342.454295,62.4755224 L342.454295,62.9895522 L340.578722,62.9895522 L340.578722,64.4868657 L343,64.4868657 L343,65 L340,65 L340,60.438209 Z" id="Fill-22" fill="#54595A"></path>
                <path d="M345.515702,62.0227719 L346.357851,62.0227719 C347.057851,62.0227719 347.353719,61.6851197 347.353719,61.2288967 C347.353719,60.7216333 347.004132,60.4507263 346.428926,60.4507263 L345.515702,60.4507263 L345.515702,62.0227719 Z M347.377686,64 L346.310744,62.4742835 L345.515702,62.4742835 L345.515702,64 L345,64 L345,60 L346.494215,60 C347.466942,60 347.887603,60.5300353 347.887603,61.2398901 C347.887603,61.920691 347.495868,62.3046722 346.88595,62.4287397 L346.88595,62.4342364 L348,64 L347.377686,64 Z" id="Fill-23" fill="#54595A"></path>
                <polyline id="Fill-24" fill="#54595A" points="350 60 352.861553 60 352.861553 60.4507263 350.579462 60.4507263 350.579462 61.7864154 352.453545 61.7864154 352.453545 62.2371417 350.579462 62.2371417 350.579462 63.5500589 353 63.5500589 353 64 350 64 350 60"></polyline>
                <g id="Group-28">
                    <mask id="mask-2" fill="white">
                        <use xlink:href="#path-1"></use>
                    </mask>
                    <g id="Clip-26"></g>
                    <polyline id="Fill-25" fill="#0A0C34" mask="url(#mask-2)" points="401.331367 82.6734087 401.331367 93.0698087 299.219265 93.0698087 299.219265 0.675982609 401.331367 0.675982609 401.331367 69.300887 401.767824 69.300887 401.767824 0.241130435 298.782808 0.241130435 298.782808 93.5046609 401.767824 93.5046609 401.767824 82.6734087 401.331367 82.6734087"></polyline>
                    <path d="M6.87009796,90.0250261 L4.85927755,84.5517739 L4.82728163,84.5517739 L2.83204898,90.0250261 L6.87009796,90.0250261 Z M7.30327347,91.1955304 L2.39887347,91.1955304 L1.42340816,93.8626783 L0,93.8626783 L4.16275102,82.9178087 L5.50904082,82.9178087 L9.70132653,93.8626783 L8.27791837,93.8626783 L7.30327347,91.1955304 Z" id="Fill-27" fill="#54595A" mask="url(#mask-2)"></path>
                </g>
                <path d="M12,92.326122 L12.9159709,91.3226019 C13.7495392,92.2817542 15.0098666,92.7520534 16.1383498,92.7520534 C17.5608804,92.7520534 18.5106798,92.1276767 18.5106798,91.0951159 C18.5106798,89.8770167 17.463732,89.5567615 15.909357,89.0106336 C14.1910441,88.4169111 12.4415049,87.7312262 12.4415049,85.8597096 C12.4415049,84.2479466 14.0123604,83.0145204 15.9908923,83 C17.2824461,83 18.5583866,83.4404517 19.6712566,84.2616603 L18.8055947,85.2974479 C17.887889,84.5827222 16.8582891,84.2326195 15.9908923,84.2326195 C14.9118508,84.2326195 13.9290903,84.7803608 13.9290903,85.799208 C13.9126098,86.8333822 14.9595576,87.2004253 16.3994362,87.7312262 C18.3632224,88.4306248 20,88.9323849 20,90.9579789 C20,92.9504987 18.1168817,94 16.1218692,94 C14.6655101,94 13.1605768,93.4829129 12,92.326122" id="Fill-29" fill="#54595A"></path>
                <path d="M23,92.326122 L23.9159709,91.3226019 C24.7495392,92.2817542 26.0098666,92.7520534 27.1383498,92.7520534 C28.5617478,92.7520534 29.5115472,92.1276767 29.5115472,91.0951159 C29.5115472,89.8770167 28.4645994,89.5567615 26.909357,89.0106336 C25.1919115,88.4169111 23.4415049,87.7312262 23.4415049,85.8597096 C23.4415049,84.2479466 25.0132278,83.0145204 26.9908923,83 C28.2833135,83 29.559254,83.4404517 30.6712566,84.2616603 L29.8055947,85.2974479 C28.8887564,84.5827222 27.8591565,84.2326195 26.9908923,84.2326195 C25.9127182,84.2326195 24.9290903,84.7803608 24.9290903,85.799208 C24.9134772,86.8333822 25.960425,87.2004253 27.3994362,87.7312262 C29.3640898,88.4306248 31,88.9323849 31,90.9579789 C31,92.9504987 29.1168817,94 27.1227366,94 C25.6655101,94 24.1605768,93.4829129 23,92.326122" id="Fill-30" fill="#54595A"></path>
                <path d="M34,89.4681923 L34,83 L35.425253,83 L35.425253,89.3745094 C35.425253,91.3882841 36.619759,92.7242835 38.4830843,92.7242835 C40.3004337,92.7242835 41.5764819,91.4795231 41.5764819,89.3745094 L41.5764819,83 L43,83 L43,89.4681923 C43,92.2794934 41.2485783,94 38.4830843,94 C35.8329639,94 34,92.3414056 34,89.4681923" id="Fill-31" fill="#54595A"></path>
                <path d="M47.3766506,88.5607916 L49.6210438,88.5607916 C51.4873192,88.5607916 52.2787676,87.6316654 52.2787676,86.3764003 C52.2787676,84.9831217 51.3447914,84.238835 49.8096835,84.238835 L47.3766506,84.238835 L47.3766506,88.5607916 Z M52.3399707,94 L49.4944456,89.8012696 L47.3766506,89.8012696 L47.3766506,94 L46,94 L46,83 L49.9849088,83 C52.5789143,83 53.7006917,84.4548917 53.7006917,86.4084391 C53.7006917,88.2823002 52.6577237,89.3362957 51.0278768,89.6772218 L51.0278768,89.692009 L54,94 L52.3399707,94 Z" id="Fill-32" fill="#54595A"></path>
                <path d="M64.0807611,90.1430172 L62.0088795,84.6421957 L61.9750529,84.6421957 L59.9183932,90.1430172 L64.0807611,90.1430172 Z M64.5272727,91.3194175 L59.4718816,91.3194175 L58.4672304,94 L57,94 L61.2909091,83 L62.6778013,83 L67,94 L65.5327696,94 L64.5272727,91.3194175 Z" id="Fill-33" fill="#54595A"></path>
                <polyline id="Fill-34" fill="#54595A" points="79 83 79 94 77.6089478 94 71.3893952 85.3224048 71.3595692 85.3224048 71.3595692 94 70 94 70 83 71.3421707 83 77.6089478 91.7704257 77.6412593 91.7704257 77.6412593 83 79 83"></polyline>
                <path d="M83,88.5609899 C83,85.4840273 84.9956306,83 88.6096126,83 C90.1632636,83 91.7790942,83.6098994 93,85.0720423 L91.9698345,85.8952045 C91.1136039,84.8595873 89.9086631,84.2634207 88.6096126,84.2634207 C86.0426015,84.2634207 84.4418956,86.0470735 84.4418956,88.5609899 C84.4418956,91.1354924 86.2333417,92.7357715 88.6096126,92.7357715 C90.0674733,92.7357715 91.1783043,92.065286 91.9698345,91.1217596 L93,91.9594624 C92.0168893,93.132408 90.591799,94 88.6096126,94 C85.5661709,94 83,92.0967908 83,88.5609899" id="Fill-35" fill="#54595A"></path>
                <polyline id="Fill-36" fill="#54595A" points="96 83 102.679228 83 102.679228 84.238835 97.3506629 84.238835 97.3506629 87.9109783 101.725866 87.9109783 101.725866 89.1514563 97.3506629 89.1514563 97.3506629 92.7619866 103 92.7619866 103 94 96 94 96 83"></polyline>
                <path d="M106,92.326122 L106.915104,91.3226019 C107.749539,92.2817542 109.009867,92.7520534 110.137482,92.7520534 C111.561748,92.7520534 112.51068,92.1276767 112.51068,91.0951159 C112.51068,89.8770167 111.463732,89.5567615 109.909357,89.0106336 C108.191044,88.4169111 106.441505,87.7312262 106.441505,85.8597096 C106.441505,84.2479466 108.01236,83.0145204 109.990892,83 C111.282446,83 112.559254,83.4404517 113.671257,84.2616603 L112.805595,85.2974479 C111.887889,84.5827222 110.859156,84.2326195 109.990892,84.2326195 C108.911851,84.2326195 107.92909,84.7803608 107.92909,85.799208 C107.91261,86.8333822 108.959558,87.2004253 110.398569,87.7312262 C112.363222,88.4306248 114,88.9323849 114,90.9579789 C114,92.9504987 112.116882,94 110.121869,94 C108.66551,94 107.160577,93.4829129 106,92.326122" id="Fill-37" fill="#54595A"></path>
                <path d="M124.374974,88.5607916 L126.620205,88.5607916 C128.487319,88.5607916 129.277091,87.6316654 129.277091,86.3764003 C129.277091,84.9831217 128.344791,84.238835 126.809684,84.238835 L124.374974,84.238835 L124.374974,88.5607916 Z M129.339132,94 L126.493607,89.8012696 L124.374974,89.8012696 L124.374974,94 L123,94 L123,83 L126.98407,83 C129.577237,83 130.699853,84.4548917 130.699853,86.4084391 C130.699853,88.2823002 129.656885,89.3362957 128.027038,89.6772218 L128.027038,89.692009 L131,94 L129.339132,94 Z" id="Fill-38" fill="#54595A"></path>
                <path d="M143.593825,88.5072602 C143.593825,85.9968466 141.797956,84.2616603 139.523792,84.2616603 C137.062575,84.2616603 135.393049,86.1654444 135.393049,88.5072602 C135.393049,90.8506894 137.062575,92.7367263 139.523792,92.7367263 C141.797956,92.7367263 143.593825,90.9878263 143.593825,88.5072602 Z M134,88.5072602 C134,85.387797 136.227402,83 139.523792,83 C142.618362,83 145,85.2062922 145,88.5072602 C145,91.7945145 142.618362,94 139.523792,94 C136.227402,94 134,91.6259167 134,88.5072602 Z" id="Fill-39" fill="#54595A"></path>
                <path d="M154.531537,90.9012696 C154.531537,89.6772218 153.597605,88.9321135 151.854608,88.9321135 L149.403464,88.9321135 L149.403464,92.7619866 L151.789609,92.7619866 C153.418858,92.7619866 154.531537,92.1557132 154.531537,90.9012696 Z M149.403464,87.7244959 L151.725465,87.7244959 C152.821894,87.7244959 153.999572,87.2603435 153.999572,85.9426438 C153.999572,84.9058999 153.273466,84.238835 151.451785,84.238835 L149.403464,84.238835 L149.403464,87.7244959 Z M156,91.0253174 C156,92.7619866 154.775283,94 152.176181,94 L148,94 L148,83 L151.74086,83 C153.984178,83 155.436391,83.8042569 155.436391,85.679761 C155.436391,86.7493652 154.855677,87.7713219 153.62925,88.1894698 L153.62925,88.2198656 C154.93607,88.4843913 156,89.3987304 156,91.0253174 Z" id="Fill-40" fill="#54595A"></path>
                <polyline id="Fill-41" fill="#54595A" points="160 83 166.678451 83 166.678451 84.238835 161.350506 84.238835 161.350506 87.9109783 165.725201 87.9109783 165.725201 89.1514563 161.350506 89.1514563 161.350506 92.7619866 167 92.7619866 167 94 160 94 160 83"></polyline>
                <path d="M171.375812,88.5607916 L173.621044,88.5607916 C175.487319,88.5607916 176.277929,87.6316654 176.277929,86.3764003 C176.277929,84.9831217 175.344791,84.238835 173.809684,84.238835 L171.375812,84.238835 L171.375812,88.5607916 Z M176.339971,94 L173.494446,89.8012696 L171.375812,89.8012696 L171.375812,94 L170,94 L170,83 L173.984909,83 C176.578076,83 177.699853,84.4548917 177.699853,86.4084391 C177.699853,88.2823002 176.656885,89.3362957 175.027877,89.6772218 L175.027877,89.692009 L178,94 L176.339971,94 Z" id="Fill-42" fill="#54595A"></path>
                <polyline id="Fill-43" fill="#54595A" points="184.314557 84.238835 181 84.238835 181 83 189 83 189 84.238835 185.668936 84.238835 185.668936 94 184.314557 94 184.314557 84.238835"></polyline>
                <polyline id="Fill-44" fill="#54595A" points="209 83 209 94 207.63084 94 207.63084 85.5713219 207.598301 85.5713219 203.96473 91.7852128 203.03527 91.7852128 199.40003 85.5713219 199.36916 85.5713219 199.36916 94 198 94 198 83 199.384178 83 203.491657 90.1109783 203.521693 90.1109783 207.63084 83 209 83"></polyline>
                <path d="M216.853704,80.0151008 L218.266077,80 L216.362019,82.1284133 L215.056286,82.1284133 L216.853704,80.0151008 Z M213,83.3579336 L219.678451,83.3579336 L219.678451,84.5564576 L214.350506,84.5564576 L214.350506,88.1091116 L218.725201,88.1091116 L218.725201,89.3092251 L214.350506,89.3092251 L214.350506,92.8022708 L220,92.8022708 L220,94 L213,94 L213,83.3579336 Z" id="Fill-45" fill="#54595A"></path>
                <polyline id="Fill-46" fill="#54595A" points="232 83 232 94 230.608247 94 224.390096 85.3224048 224.359444 85.3224048 224.359444 94 223 94 223 83 224.344532 83 230.608247 91.7704257 230.640556 91.7704257 230.640556 83 232 83"></polyline>
                <path d="M243.081607,90.1430172 L241.008879,84.6421957 L240.975899,84.6421957 L238.918393,90.1430172 L243.081607,90.1430172 Z M243.527273,91.3194175 L238.471882,91.3194175 L237.46723,94 L236,94 L240.290909,83 L241.677801,83 L246,94 L244.53277,94 L243.527273,91.3194175 Z" id="Fill-47" fill="#54595A"></path>
                <path d="M250.375812,88.5607916 L252.621044,88.5607916 C254.487319,88.5607916 255.277929,87.6316654 255.277929,86.3764003 C255.277929,84.9831217 254.344791,84.238835 252.809684,84.238835 L250.375812,84.238835 L250.375812,88.5607916 Z M255.339971,94 L252.494446,89.8012696 L250.375812,89.8012696 L250.375812,94 L249,94 L249,83 L252.984909,83 C255.578076,83 256.699853,84.4548917 256.699853,86.4084391 C256.699853,88.2823002 255.656885,89.3362957 254.027038,89.6772218 L254.027038,89.692009 L257,94 L255.339971,94 Z" id="Fill-48" fill="#54595A"></path>
                <path d="M263.25324,92.7767737 C265.901168,92.7767737 267.620186,90.9949216 267.620186,88.5164302 C267.620186,85.9894698 265.886384,84.2232263 263.31566,84.2232263 L261.347782,84.2232263 L261.347782,92.7767737 L263.25324,92.7767737 Z M260,83 L263.298412,83 C266.783263,83 269,85.2624347 269,88.5164302 C269,91.753174 266.845684,94 263.346049,94 L260,94 L260,83 Z" id="Fill-49" fill="#54595A"></path>
                <polygon id="Fill-50" fill="#0A0C34" points="198 115 270 115 270 101 198 101"></polygon>
                <polyline id="Fill-51" fill="#FFFFFE" points="202 105 205.815112 105 205.815112 105.675976 202.771634 105.675976 202.771634 107.677874 205.271423 107.677874 205.271423 108.355477 202.771634 108.355477 202.771634 110.324024 206 110.324024 206 111 202 111 202 105"></polyline>
                <polyline id="Fill-52" fill="#FFFFFE" points="209.657806 105.675976 208 105.675976 208 105 212 105 212 105.675976 210.334706 105.675976 210.334706 111 209.657806 111 209.657806 105.675976"></polyline>
                <path d="M221.540835,108.896421 L220.504605,105.894794 L220.489254,105.894794 L219.459165,108.896421 L221.540835,108.896421 Z M221.7642,109.536605 L219.2358,109.536605 L218.733037,111 L218,111 L220.145379,105 L220.839269,105 L223,111 L222.266963,111 L221.7642,109.536605 Z" id="Fill-53" fill="#FFFFFE"></path>
                <path d="M225,110.088415 L225.458874,109.540346 C225.876033,110.06285 226.505706,110.320107 227.069264,110.320107 C227.780795,110.320107 228.256198,109.97976 228.256198,109.416511 C228.256198,108.750999 227.732782,108.57763 226.955136,108.278828 C226.096419,107.95526 225.222747,107.580559 225.222747,106.561119 C225.222747,105.679095 226.00669,105.00719 226.996852,105 C227.642267,105 228.279811,105.23968 228.835498,105.687883 L228.402597,106.253529 C227.945297,105.86285 227.429752,105.671105 226.996852,105.671105 C226.45612,105.671105 225.965762,105.969907 225.965762,106.526764 C225.957891,107.09241 226.481307,107.291345 227.199921,107.580559 C228.182212,107.963249 229,108.235686 229,109.340613 C229,110.427963 228.059425,111 227.061393,111 C226.333333,111 225.581661,110.718775 225,110.088415" id="Fill-54" fill="#FFFFFE"></path>
                <path d="M232,110.088415 L232.458874,109.540346 C232.876033,110.06285 233.505706,110.320107 234.069264,110.320107 C234.780795,110.320107 235.256198,109.97976 235.256198,109.416511 C235.256198,108.750999 234.732782,108.57763 233.955136,108.278828 C233.096419,107.95526 232.22196,107.580559 232.22196,106.561119 C232.22196,105.679095 233.00669,105.00719 233.995277,105 C234.642267,105 235.279811,105.23968 235.835498,105.687883 L235.402597,106.253529 C234.945297,105.86285 234.429752,105.671105 233.995277,105.671105 C233.455333,105.671105 232.965762,105.969907 232.965762,106.526764 C232.957891,107.09241 233.481307,107.291345 234.199921,107.580559 C235.182212,107.963249 236,108.235686 236,109.340613 C236,110.427963 235.059425,111 234.060606,111 C233.333333,111 232.581661,110.718775 232,110.088415" id="Fill-55" fill="#FFFFFE"></path>
                <path d="M238,110.504689 C238,110.221654 238.217573,110 238.502929,110 C238.774059,110 239,110.221654 239,110.504689 C239,110.780904 238.774059,111 238.502929,111 C238.217573,111 238,110.780904 238,110.504689" id="Fill-56" fill="#FFFFFE"></path>
                <polygon id="Fill-57" fill="#FFFFFE" points="245.043 111 245.957 111 245.957 105 245.043 105"></polygon>
                <polyline id="Fill-58" fill="#FFFFFE" points="254 105 254 111 253.227106 111 249.772894 106.26654 249.755348 106.26654 249.755348 111 249 111 249 105 249.746992 105 253.227106 109.78308 253.244652 109.78308 253.244652 105 254 105"></polyline>
                <path d="M257,108.0344 C257,106.3552 257.997559,105 259.804301,105 C260.581452,105 261.389872,105.332 262,106.1312 L261.484442,106.5792 C261.057352,106.0144 260.454851,105.6888 259.804301,105.6888 C258.52227,105.6888 257.721477,106.6624 257.721477,108.0344 C257.721477,109.4384 258.61684,110.3104 259.804301,110.3104 C260.532642,110.3104 261.088621,109.944 261.484442,109.4304 L262,109.8872 C261.508084,110.5272 260.794997,111 259.804301,111 C258.282794,111 257,109.9624 257,108.0344" id="Fill-59" fill="#FFFFFE"></path>
                <path d="M265,110.504689 C265,110.221654 265.216918,110 265.50335,110 C265.773869,110 266,110.221654 266,110.504689 C266,110.780904 265.773869,111 265.50335,111 C265.216918,111 265,110.780904 265,110.504689" id="Fill-60" fill="#FFFFFE"></path>
                <path d="M233.720555,25.3569539 L241.265559,46.6700527 L226.175552,46.6700527 C228.72241,39.7625197 231.466121,31.4741381 233.720555,25.3569539 Z M215.395109,74 L221.177406,59.7918158 L246.165686,59.7918158 L252.143204,74 L269,74 L238.815903,0 L228.72241,0 L206,55.5283736 L206,74 L215.395109,74 Z" id="Fill-61" fill="#0A0C34"></path>
                <path d="M80.8086246,13.1225855 L94.4573238,13.1225855 C100.840521,13.1225855 106.045132,18.9445198 106.045132,26.9351842 C106.045132,34.9274934 100.840521,40.7486052 94.4573238,40.7486052 L80.8086246,40.7486052 L80.8086246,13.1225855 Z M121.061483,33.1165174 L121.061483,70.0531908 L107.91041,50.5181711 C114.532599,46.9167797 119.349258,40.7025495 121.061483,33.1165174 Z M80.8086246,74 L80.8086246,53.8711907 L92.5920452,53.8711907 L106.045132,74 L136.773529,74 L136.773529,30.7824802 L158.768102,74 L168.2942,74 L190.287954,30.7824802 L190.287954,74 L198.426756,74 L206,55.5283736 L206,0 L189.012788,0 C180.665277,16.182 171.829144,33.7448487 163.481634,50.1225855 L137.952117,0 L121.061483,0 L121.061483,20.8229345 C118.327815,8.67163084 107.583025,0.0838871724 94.5563579,0 L65,0 L65,57.3993865 L71.7850633,74 L80.8086246,74 Z" id="Fill-62" fill="#0A0C34"></path>
                <path d="M35.3970189,25.3569539 L42.9671669,46.6700527 L27.8268709,46.6700527 C30.3822158,39.7625197 33.1350715,31.4741381 35.3970189,25.3569539 Z M22.8120678,59.7918158 L47.8836244,59.7918158 L53.8810634,74 L64,74 L64,57.3993865 L40.5093479,0 L30.3822158,0 L0,74 L17.0105004,74 L22.8120678,59.7918158 Z" id="Fill-63" fill="#0A0C34"></path>
            </g>
        </g>
    </g>
</svg>